<?xml version="1.0" encoding="UTF-8" standalone="no"?>
<!-- Created with Inkscape (http://www.inkscape.org/) -->

<svg
   xmlns:osb="http://www.openswatchbook.org/uri/2009/osb"
   xmlns:dc="http://purl.org/dc/elements/1.1/"
   xmlns:cc="http://creativecommons.org/ns#"
   xmlns:rdf="http://www.w3.org/1999/02/22-rdf-syntax-ns#"
   xmlns:svg="http://www.w3.org/2000/svg"
   xmlns="http://www.w3.org/2000/svg"
   xmlns:xlink="http://www.w3.org/1999/xlink"
   xmlns:sodipodi="http://sodipodi.sourceforge.net/DTD/sodipodi-0.dtd"
   xmlns:inkscape="http://www.inkscape.org/namespaces/inkscape"
   width="50"
   height="50"
   id="svg2"
   version="1.1"
   inkscape:version="0.48.4 r9939"
   sodipodi:docname="logo-bruno-dish-3.svg">
  <defs
     id="defs4">
    <linearGradient
       id="linearGradient4378"
       osb:paint="solid">
      <stop
         style="stop-color:#000000;stop-opacity:0;"
         offset="0"
         id="stop4380" />
    </linearGradient>
    <linearGradient
       inkscape:collect="always"
       xlink:href="#linearGradient4378"
       id="linearGradient4382"
       x1="4.7523749"
       y1="894.5677"
       x2="27.649598"
       y2="894.5677"
       gradientUnits="userSpaceOnUse" />
    <mask
       maskUnits="userSpaceOnUse"
       id="mask4464">
      <rect
         style="fill:#ffffff;fill-opacity:1;stroke:#000000;stroke-width:2.19142103;stroke-miterlimit:4;stroke-opacity:1;stroke-dasharray:none"
         id="rect4466"
         width="56.308578"
         height="18.808578"
         x="607.79224"
         y="820.91949"
         transform="matrix(0.79890738,0.60145407,-0.60145407,0.79890738,0,0)" />
    </mask>
    <mask
       maskUnits="userSpaceOnUse"
       id="mask4468">
      <rect
         style="fill:#ffffff;fill-opacity:1;stroke:#000000;stroke-width:2.19142103;stroke-miterlimit:4;stroke-opacity:1;stroke-dasharray:none"
         id="rect4470"
         width="56.308578"
         height="18.808578"
         x="607.79224"
         y="820.91949"
         transform="matrix(0.79890738,0.60145407,-0.60145407,0.79890738,0,0)" />
    </mask>
    <mask
       maskUnits="userSpaceOnUse"
       id="mask4472">
      <rect
         style="fill:#ffffff;fill-opacity:1;stroke:#000000;stroke-width:2.19004917;stroke-miterlimit:4;stroke-opacity:1;stroke-dasharray:none"
         id="rect4474"
         width="48.207905"
         height="21.941603"
         x="3.1256356"
         y="18.553799"
         transform="matrix(0.99999746,0.00225265,-0.07042667,0.99751696,0,0)" />
    </mask>
    <mask
       maskUnits="userSpaceOnUse"
       id="mask4464-3">
      <rect
         style="fill:#ffffff;fill-opacity:1;stroke:#000000;stroke-width:2.19142103;stroke-miterlimit:4;stroke-opacity:1;stroke-dasharray:none"
         id="rect4466-9"
         width="56.308578"
         height="18.808578"
         x="607.79224"
         y="820.91949"
         transform="matrix(0.79890738,0.60145407,-0.60145407,0.79890738,0,0)" />
    </mask>
    <mask
       maskUnits="userSpaceOnUse"
       id="mask4472-5">
      <rect
         style="fill:#ffffff;fill-opacity:1;stroke:#000000;stroke-width:2.19004917;stroke-miterlimit:4;stroke-opacity:1;stroke-dasharray:none"
         id="rect4474-3"
         width="48.207905"
         height="21.941603"
         x="3.1256356"
         y="18.553799"
         transform="matrix(0.99999746,0.00225265,-0.07042667,0.99751696,0,0)" />
    </mask>
    <mask
       maskUnits="userSpaceOnUse"
       id="mask4468-6">
      <rect
         style="fill:#ffffff;fill-opacity:1;stroke:#000000;stroke-width:2.19142103;stroke-miterlimit:4;stroke-opacity:1;stroke-dasharray:none"
         id="rect4470-0"
         width="56.308578"
         height="18.808578"
         x="607.79224"
         y="820.91949"
         transform="matrix(0.79890738,0.60145407,-0.60145407,0.79890738,0,0)" />
    </mask>
  </defs>
  <sodipodi:namedview
     id="base"
     pagecolor="#ffffff"
     bordercolor="#666666"
     borderopacity="1.0"
     inkscape:pageopacity="0.0"
     inkscape:pageshadow="2"
     inkscape:zoom="5.6568543"
     inkscape:cx="22.33264"
     inkscape:cy="20.381616"
     inkscape:document-units="px"
     inkscape:current-layer="layer2"
     showgrid="false"
     inkscape:window-width="927"
     inkscape:window-height="1028"
     inkscape:window-x="65"
     inkscape:window-y="24"
     inkscape:window-maximized="0" />
  <metadata
     id="metadata7">
    <rdf:RDF>
      <cc:Work
         rdf:about="">
        <dc:format>image/svg+xml</dc:format>
        <dc:type
           rdf:resource="http://purl.org/dc/dcmitype/StillImage" />
        <dc:title></dc:title>
      </cc:Work>
    </rdf:RDF>
  </metadata>
  <g
     inkscape:label="BehindText"
     inkscape:groupmode="layer"
     id="layer1"
     transform="translate(0,-1002.3622)"
     style="display:inline" />
  <g
     inkscape:groupmode="layer"
     id="layer2"
     inkscape:label="Text"
     style="display:inline">
    <text
       xml:space="preserve"
       style="font-size:51.45026016px;font-style:normal;font-variant:normal;font-weight:500;font-stretch:normal;text-align:start;line-height:125%;letter-spacing:0px;word-spacing:0px;writing-mode:lr-tb;text-anchor:start;fill:#ffffff;fill-opacity:1;stroke:#000000;stroke-width:0.98526067;stroke-opacity:1;display:inline;font-family:Rekha;-inkscape-font-specification:Rekha Medium"
       x="0.013919162"
       y="41.003922"
       id="text4366"
       sodipodi:linespacing="125%"
       transform="scale(0.88430907,1.1308264)"><tspan
         sodipodi:role="line"
         id="tspan4368"
         x="0.013919162"
         y="41.003922"
         style="fill:#ffffff;fill-opacity:1;stroke:#000000;stroke-width:0.98526067;stroke-opacity:1">S</tspan></text>
    <text
       xml:space="preserve"
       style="font-size:43.33506393px;font-style:normal;font-variant:normal;font-weight:500;font-stretch:normal;text-align:start;line-height:125%;letter-spacing:0px;word-spacing:0px;writing-mode:lr-tb;text-anchor:start;fill:none;stroke:#000000;stroke-width:1.08337653;stroke-opacity:1;display:inline;font-family:Rekha;-inkscape-font-specification:Rekha Medium"
       x="23.479156"
       y="43.346699"
       id="text4370"
       sodipodi:linespacing="125%"
       transform="scale(0.92304006,1.0833766)"><tspan
         sodipodi:role="line"
         id="tspan4372"
         x="23.479156"
         y="43.346699"
         style="stroke-width:1.08337653">c</tspan></text>
    <text
       xml:space="preserve"
       style="font-size:42.06808472px;font-style:normal;font-variant:normal;font-weight:500;font-stretch:normal;text-align:start;line-height:125%;letter-spacing:0px;word-spacing:0px;writing-mode:lr-tb;text-anchor:start;fill:none;stroke:#000000;stroke-width:1.05170214;stroke-opacity:1;display:inline;font-family:Rekha;-inkscape-font-specification:Rekha Medium"
       x="40.900684"
       y="44.254063"
       id="text4374"
       sodipodi:linespacing="125%"
       transform="scale(0.95083959,1.0517021)"><tspan
         sodipodi:role="line"
         id="tspan4376"
         x="40.900684"
         y="44.254063"
         style="stroke-width:1.05170214">i</tspan></text>
    <g
       id="g4732"
       transform="matrix(0.97706381,0.21294671,-0.21294671,0.97706381,3.016976,-5.2202497)">
      <path
         sodipodi:nodetypes="cc"
         inkscape:connector-curvature="0"
         id="path4646"
         d="m 29.344931,9.1645835 c 1.736674,2.6683145 3.337479,5.3860355 0,9.8994955"
         style="fill:none;stroke:#000000;stroke-width:0.5;stroke-linecap:butt;stroke-linejoin:miter;stroke-miterlimit:4;stroke-opacity:1;stroke-dasharray:none" />
      <path
         sodipodi:nodetypes="cc"
         inkscape:connector-curvature="0"
         id="path4691"
         d="m 31.819805,6.6897098 c 2.1792,4.0417482 3.418166,8.4752602 0,14.8492432"
         style="fill:none;stroke:#000000;stroke-width:0.5;stroke-linecap:butt;stroke-linejoin:miter;stroke-miterlimit:4;stroke-opacity:1;stroke-dasharray:none" />
    </g>
    <g
       id="g4736"
       transform="matrix(0.95852775,0.2849992,-0.2849992,0.95852775,6.9712536,-6.6103144)">
      <path
         sodipodi:nodetypes="cc"
         inkscape:connector-curvature="0"
         id="path4646-8"
         d="M 40.348393,18.947753 C 38.684609,16.233392 37.157982,13.47332 40.616453,9.0518877"
         style="fill:none;stroke:#000000;stroke-width:0.5;stroke-linecap:butt;stroke-linejoin:miter;stroke-miterlimit:4;stroke-opacity:1;stroke-dasharray:none;display:inline" />
      <path
         sodipodi:nodetypes="cc"
         inkscape:connector-curvature="0"
         id="path4691-9"
         d="M 37.807411,21.354705 C 35.738453,17.25543 34.619993,12.789995 38.209502,6.5109067"
         style="fill:none;stroke:#000000;stroke-width:0.5;stroke-linecap:butt;stroke-linejoin:miter;stroke-miterlimit:4;stroke-opacity:1;stroke-dasharray:none;display:inline" />
    </g>
  </g>
  <g
     inkscape:groupmode="layer"
     id="layer3"
     inkscape:label="FrontOfText"
     style="display:inline">
    <g
       id="g4610"
       transform="matrix(0.96936548,0,0,1,0.07174733,7.6013979)">
      <path
         transform="matrix(0.93417086,0.70086393,-0.45090198,0.73601909,1.965225,-14.09063)"
         d="m 46.428572,19.776785 c 0,1.651923 -8.03489,2.991071 -17.946429,2.991071 -9.911538,0 -17.946428,-1.339148 -17.946428,-2.991071 0,-1.651923 8.03489,-2.991072 17.946428,-2.991072 9.911539,0 17.946429,1.339149 17.946429,2.991072 z"
         sodipodi:ry="2.9910715"
         sodipodi:rx="17.946428"
         sodipodi:cy="19.776785"
         sodipodi:cx="28.482143"
         id="path2985"
         style="fill:none;stroke:#000000;stroke-width:0.97385091;stroke-linecap:butt;stroke-linejoin:miter;stroke-miterlimit:4;stroke-opacity:1;stroke-dasharray:none;display:inline"
         sodipodi:type="arc" />
      <path
         inkscape:connector-curvature="0"
         id="path3763"
         d="m 2.746315,1010.3115 0.3296884,9.8343 10.7099436,13.0334 14.725474,5.8762 7.906204,-3.5271"
         style="fill:none;stroke:#000000;stroke-width:0.80854642px;stroke-linecap:butt;stroke-linejoin:miter;stroke-opacity:1;display:inline"
         transform="translate(0,-1002.3622)" />
      <path
         inkscape:connector-curvature="0"
         id="path4337"
         d="m 21.334605,1035.839 -7.464765,-2.9896 -5.4488336,-6.634 c -2.9968587,-3.6487 -5.461037,-6.7072 -5.4759515,-6.7967 -0.023283,-0.1397 -0.2540271,-7.2144 -0.2489182,-7.6319 0.00125,-0.1027 0.2417094,0.1285 0.7621021,0.7325 4.7183565,5.4769 18.0466612,15.8872 26.9484462,21.0489 1.938816,1.1241 3.610145,1.987 4.385175,2.2638 0.221006,0.08 0.401829,0.1677 0.401829,0.1975 0,0.069 -6.157172,2.8144 -6.292628,2.8056 -0.05593,0 -3.460835,-1.352 -7.566456,-2.9961 z"
         style="color:#000000;fill:#000000;fill-opacity:1;stroke:#000000;stroke-width:0.07497315;stroke-linecap:butt;stroke-linejoin:miter;stroke-miterlimit:4;stroke-opacity:1;stroke-dasharray:none;stroke-dashoffset:0;marker:none;visibility:visible;display:inline;overflow:visible;enable-background:accumulate"
         transform="translate(0,-1002.3622)" />
      <path
         inkscape:connector-curvature="0"
         id="path4341"
         d="m 22.268698,1021.4016 3.835329,-12.9349"
         style="fill:none;stroke:#000000;stroke-width:0.80854642px;stroke-linecap:butt;stroke-linejoin:miter;stroke-opacity:1;display:inline"
         transform="translate(0,-1002.3622)" />
      <path
         transform="matrix(1.7601959,0,0,1.2921568,-33.52733,-2.2641)"
         d="m 35.000002,6.6517854 c 0,0.7643226 -0.499683,1.3839285 -1.116072,1.3839285 -0.616389,0 -1.116071,-0.6196059 -1.116071,-1.3839285 0,-0.7643227 0.499682,-1.3839286 1.116071,-1.3839286 0.616389,0 1.116072,0.6196059 1.116072,1.3839286 z"
         sodipodi:ry="1.3839285"
         sodipodi:rx="1.1160715"
         sodipodi:cy="6.6517854"
         sodipodi:cx="33.88393"
         id="path4345"
         style="fill:#000000;fill-opacity:1;stroke:#000000;stroke-width:1;stroke-miterlimit:4;stroke-opacity:1;stroke-dasharray:none;display:inline"
         sodipodi:type="arc" />
      <path
         transform="translate(3.4939409,-1020.5844)"
         style="color:#000000;fill:#000000;fill-opacity:1;stroke:#000000;stroke-width:0.07497315;stroke-linecap:butt;stroke-linejoin:miter;stroke-miterlimit:4;stroke-opacity:1;stroke-dasharray:none;stroke-dashoffset:0;marker:none;visibility:visible;display:inline;overflow:visible;enable-background:accumulate"
         d="m 17.842852,1054.0632 -7.464765,-2.9896 -5.4488329,-6.634 c -2.996859,-3.6487 -5.46103699,-6.7072 -5.47595199,-6.7967 -0.02328,-0.1397 -0.254027,-7.2144 -0.248918,-7.6319 0.0013,-0.1027 0.241709,0.1285 0.762102,0.7325 4.71835699,5.4769 18.04666089,15.8872 26.94844589,21.0489 1.938816,1.1241 3.610145,1.987 4.385175,2.2638 0.221006,0.08 0.401829,0.1677 0.401829,0.1975 0,0.069 -6.157172,2.8144 -6.292628,2.8056 -0.05593,0 -3.460835,-1.352 -7.566456,-2.9961 z"
         id="path4337-5"
         inkscape:connector-curvature="0"
         mask="url(#mask4464-3)" />
      <path
         sodipodi:nodetypes="cc"
         inkscape:connector-curvature="0"
         id="path4339"
         d="M 10.190178,17.080242 26.104027,6.1820002"
         style="fill:none;stroke:#000000;stroke-width:0.80854642px;stroke-linecap:butt;stroke-linejoin:miter;stroke-opacity:1;display:inline" />
      <path
         sodipodi:nodetypes="cc"
         inkscape:connector-curvature="0"
         id="path4343"
         d="M 27.336284,30.058014 26.305886,7.2663002"
         style="fill:none;stroke:#000000;stroke-width:0.80854642px;stroke-linecap:butt;stroke-linejoin:miter;stroke-opacity:1;display:inline" />
      <g
         id="g4476"
         style="display:inline"
         transform="translate(0,-1002.3622)">
        <path
           transform="matrix(0.93417086,0.70086393,-0.45090198,0.73601909,1.967413,988.27352)"
           sodipodi:type="arc"
           style="fill:none;stroke:#000000;stroke-width:0.97385091;stroke-linecap:butt;stroke-linejoin:miter;stroke-miterlimit:4;stroke-opacity:1;stroke-dasharray:none"
           id="path2985-3"
           sodipodi:cx="28.482143"
           sodipodi:cy="19.776785"
           sodipodi:rx="17.946428"
           sodipodi:ry="2.9910715"
           d="m 46.428572,19.776785 c 0,1.651923 -8.03489,2.991071 -17.946429,2.991071 -9.911538,0 -17.946428,-1.339148 -17.946428,-2.991071 0,-1.651923 8.03489,-2.991072 17.946428,-2.991072 9.911539,0 17.946429,1.339149 17.946429,2.991072 z"
           mask="url(#mask4472-5)" />
        <path
           transform="translate(3.4939409,-18.222178)"
           style="fill:none;stroke:#000000;stroke-width:0.80854642px;stroke-linecap:butt;stroke-linejoin:miter;stroke-opacity:1"
           d="m -0.74543789,1028.5357 0.329689,9.8343 10.70994289,13.0334 14.725474,5.8762 7.906204,-3.5271"
           id="path3763-6"
           inkscape:connector-curvature="0"
           mask="url(#mask4468-6)" />
      </g>
    </g>
  </g>
</svg>
